<?xml version="1.0" standalone="no"?>
<!DOCTYPE svg PUBLIC "-//W3C//DTD SVG 20010904//EN"
 "http://www.w3.org/TR/2001/REC-SVG-20010904/DTD/svg10.dtd">
<svg version="1.0" xmlns="http://www.w3.org/2000/svg"
 width="728.000000pt" height="627.000000pt" viewBox="0 0 728.000000 627.000000"
 preserveAspectRatio="xMidYMid meet">

<g transform="translate(0.000000,627.000000) scale(0.100000,-0.100000)"
fill="#000000" stroke="none">
<path d="M3330 6259 c-146 -14 -370 -57 -522 -100 -367 -103 -720 -275 -1012
-493 -250 -185 -463 -393 -637 -621 -315 -412 -522 -901 -610 -1441 -30 -187
-38 -614 -14 -809 47 -391 139 -704 310 -1050 380 -768 1066 -1350 1893 -1604
290 -89 581 -131 912 -131 435 0 814 74 1194 232 535 223 966 559 1321 1030
125 165 201 291 305 503 160 328 252 645 296 1025 13 116 15 199 11 410 -6
279 -20 399 -71 629 -163 722 -598 1385 -1193 1821 -428 313 -910 510 -1433
586 -126 19 -610 27 -750 13z m545 -100 c1389 -104 2528 -1141 2760 -2513 78
-459 49 -932 -85 -1376 -242 -806 -807 -1473 -1565 -1845 -278 -136 -535 -220
-826 -269 -408 -69 -786 -58 -1194 35 -790 179 -1488 689 -1917 1399 -383 634
-514 1416 -363 2166 84 417 285 859 550 1211 614 815 1620 1269 2640 1192z"/>
<path d="M3350 6129 c-598 -62 -1160 -298 -1620 -681 -601 -501 -977 -1199
-1065 -1978 -17 -155 -20 -469 -5 -621 76 -772 448 -1484 1041 -1993 457 -392
1028 -638 1625 -701 708 -74 1415 99 1994 489 484 327 887 813 1095 1322 167
407 235 750 235 1178 0 692 -222 1326 -658 1876 -92 115 -346 371 -462 464
-375 300 -846 517 -1315 605 -255 48 -619 65 -865 40z m197 -233 c2 -2 29
-115 62 -252 32 -137 62 -242 65 -234 3 8 35 120 70 248 36 129 66 236 68 238
2 2 79 1 171 -3 l167 -6 -6 -406 c-3 -223 -7 -412 -10 -418 -4 -14 -75 -17
-160 -7 l-50 6 3 247 c2 135 5 274 6 309 2 34 0 57 -4 50 -4 -7 -37 -123 -73
-258 -37 -135 -74 -269 -82 -298 l-16 -53 -96 3 -96 3 -28 120 c-16 66 -49
208 -76 315 l-47 195 -5 -305 c-3 -168 -8 -309 -12 -315 -3 -6 -47 -9 -107 -7
l-100 3 5 357 c3 196 7 386 10 420 l6 64 166 -7 c92 -4 168 -8 169 -9z m1645
-429 l88 -82 -124 -195 c-68 -107 -122 -196 -121 -198 1 -1 87 50 191 114 104
64 196 119 205 121 10 3 48 -26 102 -79 l86 -83 -108 -205 c-60 -113 -108
-206 -106 -208 1 -2 87 58 189 134 l187 136 82 -79 c45 -43 83 -82 85 -87 3
-7 -664 -472 -691 -481 -7 -3 -52 33 -102 79 l-90 84 37 74 c21 40 76 147 122
238 47 90 84 165 83 166 -1 2 -36 -18 -77 -43 -41 -26 -144 -88 -228 -140
l-154 -94 -86 83 c-48 45 -89 86 -90 90 -4 9 420 737 428 737 3 0 44 -37 92
-82z m-2978 -140 c38 -30 69 -82 79 -134 6 -29 0 -61 -18 -105 -6 -16 -3 -16
43 -1 75 24 133 12 190 -40 54 -51 82 -106 81 -167 -1 -103 -43 -158 -284
-369 -99 -86 -185 -160 -191 -164 -8 -4 -108 103 -263 281 -296 341 -296 341
-285 352 57 53 369 319 399 340 51 35 66 39 146 37 55 -2 72 -7 103 -30z
m1742 -477 c193 -33 405 -111 572 -211 505 -301 815 -807 858 -1401 l7 -98
-869 -2 -869 -3 -3 -867 -2 -868 -29 0 c-16 0 -75 5 -132 10 -341 34 -657 161
-917 369 -391 311 -621 753 -658 1263 l-7 98 869 2 869 3 3 869 2 869 98 -7
c53 -4 147 -16 208 -26z m-406 9 c-47 -4 -114 -10 -150 -14 -35 -3 -62 -4 -59
-1 3 3 34 8 69 11 35 3 66 7 68 10 3 3 39 4 81 3 l76 -1 -85 -8z m-227 -26
c-7 -2 -21 -2 -30 0 -10 3 -4 5 12 5 17 0 24 -2 18 -5z m-56 -9 c-3 -3 -12 -4
-19 -1 -8 3 -5 6 6 6 11 1 17 -2 13 -5z m-42 -12 c-6 -5 -39 -16 -75 -26 -70
-19 -166 -55 -244 -92 -56 -27 -70 -31 -41 -11 65 43 398 162 360 129z m-395
-156 c-8 -7 -37 -26 -65 -41 -27 -15 -57 -33 -65 -39 -8 -7 -22 -16 -30 -20
-33 -16 57 51 109 81 62 36 72 40 51 19z m-180 -110 c0 -7 -142 -117 -146
-113 -3 2 12 17 33 33 21 15 40 31 43 34 6 6 64 49 68 50 1 0 2 -2 2 -4z
m-170 -139 c0 -2 -15 -16 -32 -33 l-33 -29 29 33 c28 30 36 37 36 29z m-80
-80 c0 -2 -12 -14 -27 -28 l-28 -24 24 28 c23 25 31 32 31 24z m-91 -109 c-24
-24 -37 -34 -29 -23 24 34 63 75 68 71 2 -3 -15 -24 -39 -48z m-64 -85 c-46
-70 -50 -75 -63 -91 -11 -14 -11 -12 0 8 26 50 73 120 80 120 4 0 -4 -17 -17
-37z m-93 -140 c-14 -34 -52 -103 -57 -103 -3 0 8 27 25 60 28 55 49 83 32 43z
m-69 -128 c-3 -9 -8 -14 -10 -11 -3 3 -2 9 2 15 9 16 15 13 8 -4z m-37 -99
c-34 -77 -40 -71 -7 8 14 36 27 61 29 57 2 -5 -8 -34 -22 -65z m-34 -88 c-7
-7 -12 -8 -12 -2 0 14 12 26 19 19 2 -3 -1 -11 -7 -17z m-21 -59 c-5 -13 -10
-19 -10 -12 -1 15 10 45 15 40 3 -2 0 -15 -5 -28z m-17 -78 c-4 -17 -9 -30
-11 -27 -3 2 -2 19 2 36 9 41 17 33 9 -9z m-17 -63 c-3 -8 -6 -5 -6 6 -1 11 2
17 5 13 3 -3 4 -12 1 -19z m-10 -60 c-3 -7 -5 -2 -5 12 0 14 2 19 5 13 2 -7 2
-19 0 -25z m-10 -65 c-3 -10 -5 -4 -5 12 0 17 2 24 5 18 2 -7 2 -21 0 -30z
m-10 -105 c-2 -13 -4 -3 -4 22 0 25 2 35 4 23 2 -13 2 -33 0 -45z m3450 -250
c-2 -18 -4 -6 -4 27 0 33 2 48 4 33 2 -15 2 -42 0 -60z m-10 -95 c-3 -10 -5
-2 -5 17 0 19 2 27 5 18 2 -10 2 -26 0 -35z m-10 -65 c-3 -7 -5 -2 -5 12 0 14
2 19 5 13 2 -7 2 -19 0 -25z m-17 -65 c-11 -17 -11 -17 -6 0 3 10 6 24 7 30 0
9 2 9 5 0 3 -7 0 -20 -6 -30z m-9 -50 c-12 -20 -14 -14 -5 12 4 9 9 14 11 11
3 -2 0 -13 -6 -23z m-24 -95 c-3 -8 -6 -5 -6 6 -1 11 2 17 5 13 3 -3 4 -12 1
-19z m-16 -45 c-12 -20 -14 -14 -5 12 4 9 9 14 11 11 3 -2 0 -13 -6 -23z m-31
-76 c-21 -46 -35 -64 -24 -29 9 26 38 82 41 78 2 -2 -6 -24 -17 -49z m-43
-102 l-14 -28 1 30 c0 17 5 29 10 26 4 -3 5 5 2 18 -6 23 -6 23 5 3 8 -17 8
-28 -4 -49z m-48 -95 c-12 -22 -24 -38 -25 -37 -6 6 30 77 39 77 4 0 -2 -18
-14 -40z m-36 -63 c-32 -52 -93 -140 -127 -182 -46 -57 -208 -226 -213 -222
-1 2 35 41 80 88 45 46 95 102 111 124 16 22 34 45 40 50 6 6 33 43 60 83 27
39 50 72 53 72 2 0 0 -6 -4 -13z m-369 -428 c-23 -26 -114 -93 -119 -88 -2 2
12 15 32 29 19 14 49 37 66 53 37 32 48 35 21 6z m-194 -146 c-133 -83 -360
-184 -408 -182 -9 0 5 7 31 15 30 9 45 19 41 26 -4 7 -3 8 4 4 16 -10 93 15
85 27 -3 6 -1 7 5 3 13 -8 75 28 65 38 -4 4 0 4 8 1 16 -6 118 43 189 91 19
13 39 24 45 24 5 0 -24 -21 -65 -47z m-515 -218 c-30 -8 -53 -10 -58 -4 -4 5
-5 7 -1 5 3 -2 17 0 32 4 15 5 38 8 52 8 14 1 3 -5 -25 -13z m-85 -15 c-8 -5
-24 -9 -35 -9 l-20 0 20 9 c11 5 27 9 35 9 13 1 13 0 0 -9z m-100 -21 c-25 -4
-79 -7 -120 -6 l-75 1 85 6 c47 3 101 7 120 7 31 0 29 -1 -10 -8z"/>
<path d="M1969 5101 c-24 -16 -57 -43 -73 -60 l-29 -30 47 -56 c26 -30 52 -55
57 -55 5 0 37 26 69 58 47 45 60 64 60 87 -1 34 -15 56 -47 73 -30 17 -34 16
-84 -17z"/>
<path d="M2154 4842 c-38 -32 -69 -63 -69 -69 0 -14 87 -122 98 -123 5 0 36
24 69 52 89 78 106 122 67 172 -16 20 -29 26 -58 26 -32 0 -50 -10 -107 -58z"/>
</g>
</svg>
